<?xml version="1.0" encoding="UTF-8"?>
<svg id="Layer_1" xmlns="http://www.w3.org/2000/svg" xmlns:svg="http://www.w3.org/2000/svg" xmlns:sodipodi="http://sodipodi.sourceforge.net/DTD/sodipodi-0.dtd" xmlns:rdf="http://www.w3.org/1999/02/22-rdf-syntax-ns#" xmlns:inkscape="http://www.inkscape.org/namespaces/inkscape" xmlns:dc="http://purl.org/dc/elements/1.1/" xmlns:cc="http://creativecommons.org/ns#" version="1.1" viewBox="0 0 24 24">
  <!-- Generator: Adobe Illustrator 29.0.0, SVG Export Plug-In . SVG Version: 2.1.0 Build 186)  -->
  <path d="M5.9,1c-1.4,0-2.6,1.2-2.6,2.6v17.4c0,1.1.9,2,2,2h15.1c.1,0,.3-.1.3-.3V5.9c0-.1-.1-.3-.3-.3-1,0-2-1-2-2s1-2,2-2c.1,0,.3-.1.3-.3s-.1-.3-.3-.3H5.9ZM5.9,1.5h13.1c-.6.5-1.1,1.2-1.1,2s.4,1.6,1.1,2H5.9c-1,0-2-1-2-2s1-2,2-2ZM3.8,5.1c.5.6,1.2,1.1,2,1.1h14.3v16.4H5.3c-.9,0-1.5-.7-1.5-1.5V5.1Z"/>
</svg>