<?xml version="1.0" encoding="UTF-8"?>
<svg id="Layer_1" xmlns="http://www.w3.org/2000/svg" version="1.1" viewBox="0 0 24 24">
  <!-- Generator: Adobe Illustrator 29.0.0, SVG Export Plug-In . SVG Version: 2.1.0 Build 186)  -->
  <path d="M10,11.1c0-.2-.2-.3-.3-.3s-.3.2-.3.3c0,.8-.6,1.4-1.4,1.4s-.3.2-.3.3.2.3.3.3c1.1,0,2.1-.9,2.1-2.1h0Z"/>
  <path d="M5.1,11.3c0-.2-.2-.3-.3-.3-1,0-1.8.8-1.8,1.8s.2.3.3.3.3-.2.3-.3c0-.6.5-1.2,1.2-1.2s.3-.2.3-.3h0Z"/>
  <path d="M7.7,16.2c-.5,0-.9.2-1.3.5-.3-.2-.7-.4-1.1-.4s-.3.2-.3.3.2.3.3.3c.7,0,1.3.6,1.3,1.3s.2.3.3.3.3-.2.3-.3c0-.4-.1-.8-.3-1.1.2-.2.5-.3.8-.3s.3-.2.3-.3-.2-.3-.3-.3h0Z"/>
  <path d="M5.3,7.7c.4,0,.8-.1,1.1-.4.3.3.8.5,1.3.5s.3-.2.3-.3-.2-.3-.3-.3c-.3,0-.6-.1-.8-.3.2-.3.3-.7.3-1.1s-.2-.3-.3-.3c-.2,0-.3.2-.3.3,0,.7-.6,1.3-1.3,1.3s-.3.2-.3.3.2.3.3.3h0Z"/>
  <path d="M22.3,9.2c.4-2.1-.8-4.1-2.8-4.8-.6-2-2.7-3.2-4.8-2.8l-.2-.2c-.5-.5-1.2-.6-1.8-.4-.3.1-.5.3-.7.6-.2-.2-.4-.4-.7-.6-.6-.3-1.3-.1-1.8.4l-.2.2c-2.1-.4-4.1.8-4.8,2.8-2,.6-3.2,2.7-2.8,4.8-1.4,1.6-1.4,4,0,5.5-.4,2.1.8,4.1,2.8,4.8.6,2,2.7,3.2,4.8,2.8l.2.2c.3.3.7.5,1.2.5s.4,0,.7-.1c.3-.1.5-.3.7-.6.2.2.4.4.7.6.2,0,.4.1.7.1.4,0,.9-.2,1.2-.5l.2-.2c2.1.4,4.2-.8,4.8-2.8,2-.6,3.2-2.7,2.8-4.8,1.4-1.6,1.4-4,0-5.5h0ZM11,22.3c-.3.1-.8.1-1.1-.2l-.4-.3c0,0-.1,0-.2,0s0,0,0,0c-1.8.5-3.7-.6-4.2-2.5,0,0-.1-.1-.2-.2-1.8-.5-2.9-2.4-2.4-4.2,0-.1,0-.2,0-.3-1.3-1.3-1.3-3.5,0-4.8,0,0,.1-.2,0-.3-.5-1.8.6-3.7,2.4-4.2,0,0,0,0,.1,0,0,0,.1-.1.1-.2.5-1.8,2.4-2.9,4.2-2.4.1,0,.2,0,.3,0l.4-.3c.4-.4.8-.3,1.1-.2.3.1.6.4.6.9v2.3c-.3-.3-.7-.4-1.1-.4s-1,.2-1.3.6c-.1.1-.1.4,0,.5.1.1.4.1.5,0,.2-.2.5-.4.8-.4.6,0,1.1.5,1.1,1.1v11.3c0,.6-.5,1.1-1.1,1.1s-.6-.1-.8-.4c-.1-.1-.3-.1-.5,0-.1.1-.1.3,0,.5.3.4.8.6,1.3.6s.8-.2,1.1-.4v2.3c0,.5-.3.8-.6.9h0ZM19.2,18.9c0,0-.2.2-.2.2-.5,1.8-2.4,2.9-4.2,2.4-.1,0-.2,0-.3,0l-.4.3c-.4.4-.8.3-1.1.2-.3-.1-.6-.4-.6-.9v-2.3c.3.3.7.4,1.1.4s1-.2,1.3-.6c.1-.1.1-.4,0-.5-.1-.1-.4-.1-.5,0-.2.2-.5.4-.8.4-.6,0-1.1-.5-1.1-1.1V6.3c0-.6.5-1.1,1.1-1.1s.6.1.8.4c.1.1.3.1.5,0,.1-.1.1-.3,0-.5-.3-.4-.8-.6-1.3-.6s-.8.2-1.1.4v-2.3c0-.5.3-.8.6-.9.1,0,.3,0,.4,0,.2,0,.5,0,.7.3l.4.3c0,0,.2.1.3,0,1.8-.5,3.7.6,4.2,2.4,0,0,0,.1.1.2,0,0,0,0,.1,0,1.8.5,2.9,2.4,2.4,4.2,0,.1,0,.2,0,.3,1.3,1.3,1.3,3.5,0,4.8,0,0-.1.2,0,.3.5,1.8-.6,3.7-2.4,4.2h0Z"/>
  <path d="M16.4,12.9c0-.2-.2-.3-.3-.3-.8,0-1.4-.6-1.4-1.4s-.2-.3-.3-.3-.3.2-.3.3c0,1.1.9,2.1,2.1,2.1s.3-.2.3-.3h0Z"/>
  <path d="M19.2,10.9c-.2,0-.3.2-.3.3s.2.3.3.3c.6,0,1.2.5,1.2,1.2s.2.3.3.3.3-.2.3-.3c0-1-.8-1.8-1.8-1.8h0Z"/>
  <path d="M18.7,16.3c-.4,0-.8.1-1.1.4-.3-.3-.8-.5-1.3-.5s-.3.2-.3.3.2.3.3.3c.3,0,.6.1.8.3-.2.3-.3.7-.3,1.1s.2.3.3.3.3-.2.3-.3c0-.7.6-1.3,1.3-1.3s.3-.2.3-.3-.2-.3-.3-.3h0Z"/>
  <path d="M16.3,7.8c.5,0,.9-.2,1.3-.5.3.2.7.4,1.1.4s.3-.2.3-.3-.2-.3-.3-.3c-.7,0-1.3-.6-1.3-1.3s-.2-.3-.3-.3-.3.2-.3.3c0,.4.1.8.3,1.1-.2.2-.5.3-.8.3s-.3.2-.3.3.2.3.3.3h0Z"/>
</svg>