<?xml version="1.0" encoding="UTF-8"?>
<svg id="Layer_1" xmlns="http://www.w3.org/2000/svg" version="1.1" viewBox="0 0 24 24">
  <!-- Generator: Adobe Illustrator 29.0.0, SVG Export Plug-In . SVG Version: 2.1.0 Build 186)  -->
  <path d="M12,23.1c-6,0-10.9-4.9-10.9-10.9S6,1.4,12,1.4c6,0,10.8,4.9,10.8,10.9s-4.9,10.9-10.8,10.9ZM12,3C6.8,3,2.7,7.2,2.7,12.3c0,5.1,4.2,9.3,9.3,9.3s9.3-4.2,9.3-9.3S17.1,3,12,3Z"/>
  <path d="M18.1,17.1c-.2,0-.4,0-.6-.2L7.4,6.6c-.2-.2-.3-.4-.2-.6,0-.2.2-.5.4-.6,1.6-1,3.4-1.5,5.3-1.3s3.6,1,4.9,2.3,2.2,3.1,2.3,4.9c.2,1.9-.3,3.7-1.3,5.3-.1.2-.4.4-.7.4h0ZM9.2,6.3l8.7,8.7c1.1-2.5.6-5.4-1.3-7.4-1.9-1.9-4.9-2.5-7.4-1.3h0Z"/>
  <path d="M12,20.4c-.2,0-.4,0-.6,0-1.9-.1-3.8-1-5.2-2.4-1.4-1.4-2.2-3.2-2.4-5.1-.2-1.9.4-3.9,1.5-5.5.1-.2.3-.3.6-.3.2,0,.5,0,.6.2l10.3,10.3c.2.2.2.4.2.6,0,.2-.1.4-.3.6-1.4,1-3.1,1.6-4.8,1.6h0ZM6.1,9.2c-1.3,2.6-.9,5.7,1.2,7.7,2,2,5.2,2.5,7.7,1.2L6.1,9.2Z"/>
</svg>