<?xml version="1.0" encoding="UTF-8"?>
<svg id="Layer_1" xmlns="http://www.w3.org/2000/svg" version="1.1" viewBox="0 0 24 24">
  <!-- Generator: Adobe Illustrator 29.0.0, SVG Export Plug-In . SVG Version: 2.1.0 Build 186)  -->
  <path d="M1.1,6.9c0,.2-.2.3-.3.3-.2,0-.3-.2-.3-.3H.5c0-.2.2-.4.4-.3.2,0,.3.2.3.3h0c0,0,0,0,0,0ZM5.6,8.7c-.1-.1-.1-.3,0-.4s.3-.1.4,0l1.2,1.2,2.9-3.6c0-.1.3-.1.4,0s.1.3,0,.4l-3.1,3.9c-.1.1-.3.1-.4,0l-1.4-1.4h0ZM8.1,2.3c1.6,0,3,.6,4,1.7,1,1,1.7,2.5,1.7,4s-.6,3-1.7,4c-1,1-2.4,1.7-4,1.7s-3-.6-4-1.7c-1-1-1.7-2.5-1.7-4s.6-3,1.7-4h0c1-1,2.4-1.7,4-1.7h0ZM11.6,4.4c-.9-.9-2.2-1.5-3.5-1.5s-2.6.6-3.5,1.5h0c-.9.9-1.5,2.2-1.5,3.6s.6,2.7,1.5,3.6c.9.9,2.2,1.5,3.5,1.5s2.6-.6,3.5-1.5,1.5-2.2,1.5-3.6-.6-2.7-1.5-3.6h0ZM20.1,16.2c.1,0,.1.3,0,.4,0,.1-.3.1-.4,0h0c-.1-.1-.1-.3,0-.5,0-.1.3-.1.4,0h0ZM19.4,15.6c.1,0,.1.3,0,.4,0,.1-.3.1-.4,0l-1.6-1.3-.6.6h0l-1.4,1.4h0l-.6.6,3.9,4.8s0,0,.1.1c.4.4.9.6,1.5.6s1.1-.2,1.6-.6c0,0,.1,0,.2-.1s.1-.1.1-.2c.4-.5.6-1,.6-1.6,0-.5-.2-1.1-.6-1.5h-.1c0-.1-1.8-1.6-1.8-1.6-.1,0-.1-.3,0-.4,0-.1.3-.1.4,0l1.8,1.5s.1,0,.2.1h0c.5.5.8,1.2.8,2s-.2,1.4-.7,2c0,0-.1.1-.2.2s-.1.1-.2.2c-.6.5-1.3.7-2,.7s-1.4-.2-1.9-.8c0,0,0-.1-.2-.2l-4.1-5c-.1-.1-.1-.3,0-.4l.6-.6-2.2-2.3c-.6.4-1.3.8-2,1-.8.3-1.6.4-2.4.4-2.1,0-4-.9-5.4-2.3S.4,10.1.4,8v-.2c0-.2.1-.3.3-.3s.3.1.3.3v.2c0,2,.8,3.7,2.1,5,1.3,1.3,3,2.1,5,2.1s1.6-.1,2.2-.4c.7-.2,1.4-.6,2-1.1.1-.1.3,0,.4,0l2.4,2.5,1-1-2.4-2.5c0,0-.1-.3,0-.4.5-.6.8-1.3,1.1-2,.2-.7.4-1.5.4-2.3,0-2-.8-3.7-2-5h0c-1.3-1.3-3-2.1-5-2.1s-3.1.5-4.2,1.4c-1.2.9-2.1,2.2-2.5,3.7,0,.2-.2.2-.4.2-.2,0-.2-.2-.2-.4.5-1.6,1.5-3.1,2.8-4,1.3-1,2.9-1.5,4.6-1.5s4,.9,5.4,2.3h0c1.4,1.4,2.2,3.3,2.2,5.5s-.1,1.7-.4,2.5c-.2.7-.6,1.4-1,2l2.2,2.3.6-.6c0,0,.3-.1.4,0l1.8,1.5h0Z"/>
</svg>