<?xml version="1.0" encoding="UTF-8"?>
<svg id="Layer_1" xmlns="http://www.w3.org/2000/svg" version="1.1" viewBox="0 0 24 24">
  <!-- Generator: Adobe Illustrator 29.0.0, SVG Export Plug-In . SVG Version: 2.1.0 Build 186)  -->
  <path d="M20.6,7.1c.2,0,.4,0,.5-.2l2.4-2.4c.1-.1.2-.3.1-.5,0-.2-.2-.3-.4-.3h-1.8c0-.4,0-.6-.2-.8-.2-.2-.5-.3-.7-.2V.9c-.1-.2-.2-.3-.4-.4-.2,0-.4,0-.5.1l-2.4,2.4c-.2.2-.2.3-.2.5v.8c-1.7-1.2-3.8-1.9-6-1.9s-5.5,1.1-7.5,3.1C1.5,7.5.4,10.2.4,13.1s1.1,5.5,3.1,7.5c2,2,4.7,3.1,7.5,3.1s5.5-1.1,7.5-3.1c2-2,3.1-4.7,3.1-7.5s-.7-4.2-1.9-6h.8c0,0,0,0,0,0h0ZM20.7,6.6c0,0-.1,0-.2,0h-2c0-.1,2.4-2.5,2.4-2.5h2c0,.1-2.3,2.5-2.3,2.5h0ZM20.6,3.2c0,0,.2,0,.2.1.1.1.1.3,0,.4l-9.2,9.2c-.1.1-.3.1-.4,0s-.1-.1-.1-.2,0-.2.1-.2L20.4,3.3c0,0,.1,0,.2,0h0ZM10.8,13.2c.2.2.4.2.6.2s.4,0,.6-.2l1.2-1.2c.2.3.2.7.2,1,0,1.3-1.1,2.4-2.4,2.4s-2.4-1.1-2.4-2.4,1.1-2.4,2.4-2.4.7,0,1,.2l-1.2,1.2c-.2.2-.2.4-.2.6s0,.4.2.6ZM12.3,10.6c-.4-.2-.9-.4-1.4-.4-1.6,0-2.8,1.3-2.8,2.8s1.3,2.8,2.8,2.8,2.8-1.3,2.8-2.8-.1-1-.4-1.4l2.5-2.5c.9,1.1,1.3,2.5,1.3,3.8,0,3.4-2.8,6.3-6.3,6.3s-6.3-2.8-6.3-6.3,2.8-6.3,6.3-6.3,2.8.5,3.8,1.3l-2.5,2.5h0ZM17.5,3.3l2.3-2.3v2c.1,0-2.3,2.4-2.3,2.4v-2c-.1,0-.1-.1,0-.2h0ZM21.1,13.1c0,5.6-4.5,10.2-10.2,10.2S.8,18.7.8,13.1,5.4,2.9,11,2.9s4.3.7,6,2v.9c0,0-1.9,1.9-1.9,1.9-1.2-.9-2.7-1.5-4.2-1.5-3.7,0-6.7,3-6.7,6.7s3,6.7,6.7,6.7,6.7-3,6.7-6.7-.5-3-1.5-4.2l1.9-1.9h.9c1.3,1.8,2,3.9,2,6.1h0Z"/>
</svg>