<?xml version="1.0" encoding="UTF-8"?>
<svg id="Layer_1" xmlns="http://www.w3.org/2000/svg" version="1.1" viewBox="0 0 110 135">
  <!-- Generator: Adobe Illustrator 29.0.0, SVG Export Plug-In . SVG Version: 2.1.0 Build 186)  -->
  <path d="M89.1,40.3c.7,0,1.4-.3,1.9-.8l9.5-9.5c.5-.5.7-1.2.4-1.9-.3-.7-.9-1.1-1.6-1.1l-7.3-.4c.2-1,0-2.1-.8-2.8-.8-.8-1.8-1-2.8-.8l-.4-7.3c0-.7-.5-1.3-1.1-1.6-.7-.3-1.4-.1-1.9.4l-9.5,9.5c-.6.6-.8,1.2-.8,2l.2,3.3c-7-4.8-15.2-7.4-23.8-7.4s-21.8,4.4-29.7,12.3c-8,7.9-12.3,18.5-12.3,29.7s4.4,21.8,12.3,29.7c7.9,7.9,18.5,12.3,29.7,12.3s21.8-4.4,29.7-12.3c7.9-7.9,12.3-18.5,12.3-29.7s-2.6-16.8-7.4-23.8l3.3.2c0,0,.1,0,.2,0h0ZM89.7,38.2c-.2.2-.4.2-.6.2l-7.8-.4,9.6-9.6,8.1.4-9.3,9.3ZM89,24.8c.3,0,.6.1.9.4.5.5.5,1.2,0,1.7l-36.5,36.5c-.5.5-1.2.5-1.7,0-.2-.2-.4-.5-.4-.9s.1-.6.4-.9l36.5-36.5c.2-.2.5-.3.9-.3h0ZM50.4,64.6c.6.6,1.4.9,2.2.9s1.6-.3,2.2-.9l4.7-4.7c.6,1.3.9,2.6.9,4.1,0,5.2-4.2,9.4-9.4,9.4s-9.4-4.2-9.4-9.4,4.2-9.4,9.4-9.4,2.8.3,4.1.9l-4.7,4.7c-.6.6-.9,1.4-.9,2.2,0,.8.3,1.6.9,2.2ZM56.5,54.1c-1.7-.9-3.5-1.4-5.5-1.4-6.2,0-11.2,5-11.2,11.2s5,11.2,11.2,11.2,11.2-5,11.2-11.2-.5-3.8-1.4-5.5l9.7-9.7c3.4,4.3,5.2,9.7,5.2,15.2,0,13.6-11.1,24.8-24.8,24.8s-24.8-11.1-24.8-24.8,11.1-24.8,24.8-24.8,10.9,1.9,15.2,5.2l-9.7,9.7ZM76.8,25.3l9.3-9.3.4,8.1-9.6,9.6-.4-7.8c0-.2,0-.4.2-.6h0ZM91.2,64c0,22.1-18,40.2-40.2,40.2S10.9,86.1,10.9,64,28.9,23.8,51,23.8s17,2.7,23.9,7.9l.2,3.7-7.6,7.6c-4.7-3.7-10.5-5.8-16.5-5.8-14.7,0-26.6,11.9-26.6,26.6s11.9,26.6,26.6,26.6,26.6-11.9,26.6-26.6-2.1-11.8-5.8-16.5l7.6-7.6,3.7.2c5.2,7,7.9,15.2,7.9,23.9h0Z"/>
</svg>