<?xml version="1.0" encoding="UTF-8"?>
<svg id="Layer_1" xmlns="http://www.w3.org/2000/svg" version="1.1" viewBox="0 0 100 125">
  <!-- Generator: Adobe Illustrator 29.0.0, SVG Export Plug-In . SVG Version: 2.1.0 Build 186)  -->
  <path d="M50.1,60c0-1.1-.9-2-2-2s-2,.9-2,2v4.5c0,1.1.9,2,2,2s2-.9,2-2v-4.5Z"/>
  <path d="M59.8,60c0-1.1-.9-2-2-2s-2,.9-2,2v4.5c0,1.1.9,2,2,2s2-.9,2-2v-4.5Z"/>
  <path d="M65.4,60v4.5c0,1.1.9,2,2,2s2-.9,2-2v-4.5c0-1.1-.9-2-2-2s-2,.9-2,2Z"/>
  <path d="M51.9,70.2c-1.1,0-2,.9-2,2v4.5c0,1.1.9,2,2,2s2-.9,2-2v-4.5c0-1.1-.9-2-2-2Z"/>
  <path d="M61.6,70.2c-1.1,0-2,.9-2,2v4.5c0,1.1.9,2,2,2s2-.9,2-2v-4.5c0-1.1-.9-2-2-2Z"/>
  <path d="M78.2,19.3c0-.1.1-.2.2-.4,2.1-4.4,2.9-9,2.2-12.4-.2-.7-.8-1.3-1.5-1.5-.7-.2-1.5,0-2,.7-1.1,1.3-2.4,2.6-3.9,3.7-2.9,2.2-6.2,3.5-8.7,3.6-4.3-2.9-9.3-4.5-14.5-4.5s-10.2,1.6-14.5,4.5c-2.5,0-5.8-1.5-8.7-3.6-1.5-1.1-2.8-2.4-3.9-3.7-.5-.6-1.3-.9-2-.7-.7.2-1.3.8-1.5,1.5-.8,3.4,0,8,2.2,12.4,0,.1.1.3.2.4-4.1,3.4-6.6,8.5-6.6,14.2s3.6,12.6,9,15.8v41.7c-1.1,0-2,.9-2,2s.9,2,2,2h41.7c1.1,0,2-.9,2-2s-.9-2-2-2h-9c11.3-5.9,19.1-17.8,19.1-31.5v-10.3c5.4-3.2,9-9.1,9-15.8,0-5.5-2.5-10.7-6.6-14.2ZM75.6,12.6c.4-.3.7-.5,1.1-.8-.3,1.7-.9,3.5-1.8,5.3-1.4-.7-2.8-1.2-4.3-1.6,1.7-.7,3.4-1.7,5-2.9ZM61.4,15.8c-5,1.4-9.1,4.9-11.4,9.4-2.3-4.5-6.4-8-11.4-9.4,3.4-2.1,7.3-3.2,11.4-3.2,4.1,0,8,1.1,11.4,3.2ZM50,41.8c.7,1.3,1.5,2.5,2.4,3.6l-2.4,3.4-2.4-3.4c.9-1.1,1.7-2.3,2.4-3.6ZM23.3,11.8c.3.3.7.6,1.1.8,1.6,1.2,3.3,2.2,5,2.9-1.5.3-2.9.9-4.3,1.6-.9-1.8-1.5-3.6-1.8-5.3ZM19.1,33.5c0-8,6.5-14.4,14.4-14.4,0,0,0,0,0,0s0,0,0,0c7.9,0,14.3,6.5,14.3,14.4s-6.5,14.4-14.4,14.4-14.4-6.5-14.4-14.4ZM71.9,59.5c0,17.3-14.1,31.5-31.5,31.5h-4.3c1.5-1.4,2.9-3,4.1-5,.6-.9.3-2.2-.7-2.7-.9-.6-2.2-.3-2.7.7-2.3,3.8-5.4,6.2-8.8,6.9v-39.2c6.8,1.4,12.1,9.6,12.1,19.6s-.4,5.5-1.2,8c-.3,1.1.3,2.2,1.3,2.5.2,0,.4,0,.6,0,.8,0,1.6-.5,1.9-1.4.9-2.9,1.4-6,1.4-9.2,0-8.1-3.1-15.2-7.7-19.5,3-.5,5.8-1.7,8.2-3.5l3.7,5.3c.4.5,1,.9,1.6.9s1.3-.3,1.6-.9l3.7-5.3c3.1,2.3,6.9,3.7,11.1,3.7s3.7-.3,5.5-.8v8.4h0ZM66.4,47.9c-8,0-14.4-6.5-14.4-14.4s5-12.9,11.8-14.2c.8-.1,1.6-.2,2.5-.2,0,0,0,0,0,0,0,0,0,0,.1,0,2.9,0,5.7.9,8.1,2.5,4,2.7,6.3,7.2,6.3,12,0,8-6.5,14.4-14.4,14.4Z"/>
  <path d="M42.2,33.5c0-4.8-3.9-8.7-8.7-8.7s-8.7,3.9-8.7,8.7,3.9,8.7,8.7,8.7,8.7-3.9,8.7-8.7ZM28.9,33.5c0-2.6,2.1-4.7,4.7-4.7s4.7,2.1,4.7,4.7-2.1,4.7-4.7,4.7-4.7-2.1-4.7-4.7Z"/>
  <path d="M66.4,24.8c-4.8,0-8.7,3.9-8.7,8.7s3.9,8.7,8.7,8.7,8.7-3.9,8.7-8.7-3.9-8.7-8.7-8.7ZM66.4,38.2c-2.6,0-4.7-2.1-4.7-4.7s2.1-4.7,4.7-4.7,4.7,2.1,4.7,4.7c0,2.6-2.1,4.7-4.7,4.7Z"/>
</svg>