<?xml version="1.0" encoding="UTF-8"?>
<svg id="Layer_1" xmlns="http://www.w3.org/2000/svg" xmlns:serif="http://www.serif.com/" version="1.1" viewBox="0 0 24 24">
  <!-- Generator: Adobe Illustrator 29.0.0, SVG Export Plug-In . SVG Version: 2.1.0 Build 186)  -->
  <defs>
    <style>
      .st0 {
        fill-rule: evenodd;
      }
    </style>
  </defs>
  <path class="st0" d="M11.2,2.6l-.7.8c0,0-.2.1-.3.2h-.3l-1.1-.4c-.4-.2-.9-.1-1.3.1-.4.2-.7.6-.8,1.1l-.2,1.1c0,.1,0,.2-.1.3,0,0-.2.1-.3.1l-1.1.2c-.5,0-.8.4-1.1.8-.2.4-.3.9-.1,1.3l.4,1.1v.3c0,0,0,.2-.2.3l-.8.7c-.3.3-.6.7-.6,1.2s.2.9.6,1.2l.8.7c0,0,.1.2.2.3v.3l-.4,1.1c-.2.4-.1.9.1,1.3.2.4.6.7,1.1.8l1.1.2c.1,0,.2,0,.3.1,0,0,.1.2.1.3l.2,1.1c0,.5.4.8.8,1.1.4.2.9.3,1.3.1l1.1-.4h.3c0,0,.2,0,.3.2l.7.8c.3.3.7.6,1.2.6s.9-.2,1.2-.6l.7-.8c0,0,.2-.1.3-.2h.3l1.1.4c.4.2.9.1,1.3-.1.4-.2.7-.6.8-1.1l.2-1.1c0-.1,0-.2.1-.3,0,0,.2-.1.3-.1l1.1-.2c.5,0,.8-.4,1.1-.8.2-.4.3-.9.1-1.3l-.4-1.1v-.3c0,0,0-.2.2-.3l.8-.7c.3-.3.6-.7.6-1.2s-.2-.9-.6-1.2l-.8-.7c0,0-.1-.2-.2-.3v-.3l.4-1.1c.2-.4.1-.9-.1-1.3-.2-.4-.6-.7-1.1-.8l-1.1-.2c-.1,0-.2,0-.3-.1,0,0-.1-.2-.1-.3l-.2-1.1c0-.5-.4-.8-.8-1.1-.4-.2-.9-.3-1.3-.1l-1.1.4h-.3c0,0-.2,0-.3-.2l-.7-.8c-.3-.3-.7-.6-1.2-.6s-.9.2-1.2.6ZM11.8,3.2c.1-.2.3-.3.6-.3s.4,0,.6.3l.7.8c.2.2.4.4.7.4.3,0,.6,0,.8,0l1.1-.4c.2,0,.4,0,.6,0,.2.1.3.3.3.5l.2,1.1c0,.3.2.6.4.7.2.2.5.3.7.4l1.1.2c.2,0,.4.2.5.3.1.2.1.4,0,.6l-.4,1.1c0,.3,0,.6,0,.8s.2.5.4.7l.8.7c.2.1.3.3.3.6s0,.4-.3.6l-.8.7c-.2.2-.4.4-.4.7,0,.3,0,.6,0,.8l.4,1.1c0,.2,0,.4,0,.6-.1.2-.3.3-.5.3l-1.1.2c-.3,0-.6.2-.7.4-.2.2-.3.5-.4.7l-.2,1.1c0,.2-.2.4-.3.5-.2.1-.4.1-.6,0l-1.1-.4c-.3,0-.6,0-.8,0s-.5.2-.7.4l-.7.8c-.1.2-.3.3-.6.3s-.4,0-.6-.3l-.7-.8c-.2-.2-.4-.4-.7-.4-.3,0-.6,0-.8,0l-1.1.4c-.2,0-.4,0-.6,0-.2-.1-.3-.3-.3-.5l-.2-1.1c0-.3-.2-.6-.4-.7-.2-.2-.5-.3-.7-.4l-1.1-.2c-.2,0-.4-.2-.5-.3-.1-.2-.1-.4,0-.6l.4-1.1c0-.3,0-.6,0-.8s-.2-.5-.4-.7l-.8-.7c-.2-.1-.3-.3-.3-.6s0-.4.3-.6l.8-.7c.2-.2.4-.4.4-.7,0-.3,0-.6,0-.8l-.4-1.1c0-.2,0-.4,0-.6.1-.2.3-.3.5-.3l1.1-.2c.3,0,.6-.2.7-.4.2-.2.3-.5.4-.7l.2-1.1c0-.2.2-.4.3-.5.2-.1.4-.1.6,0l1.1.4c.3,0,.6,0,.8,0s.5-.2.7-.4c0,0,.7-.8.7-.8Z"/>
  <path class="st0" d="M8.5,12.1l2.4,2.4c.2.2.4.2.6,0l4.8-4.8c.2-.2.2-.4,0-.6s-.4-.2-.6,0l-4.5,4.5-2.1-2.1c-.2-.2-.4-.2-.6,0s-.2.4,0,.6h0Z"/>
</svg>