<?xml version="1.0" encoding="UTF-8"?>
<svg id="Layer_1" data-name="Layer 1" xmlns="http://www.w3.org/2000/svg" width="477.48" height="706.7" viewBox="0 0 477.48 706.7">
  <defs>
    <style>
      .cls-1 {
        fill: #fff;
      }
    </style>
  </defs>
  <path d="M376.31,282.21c-1.03,3.7.32,5.57-2.68,10.33-2.69,4.26-10.21,6.85-11.77,8.54-.78.85-.37,3.16-1.52,3.99-.62.45-13.01,3.42-14.84,3.69-5.29.79-14.69-1.38-18.25.18-3.45,1.51-3.52,11.89-10.15,10.3l-1.24-3.11-7.53,12.83-6.48-2.21c-13.82,13.49-34.08,12.31-50.12,20.24,5.55,3.92,9.26,9.9,14.5,14.15,4.81,3.9,8.59,4.77,12.96,7.41,6.14,3.71,3.59,7.62,5.17,12.42,7.17,21.67,15.9,44.3,23.54,65.3,6.55,18.01,8.98,36.06,13.43,54.42.84,3.46,3.84,5.39,4.22,6.95.83,3.43-3.26,7.7-3.46,10.91-.31,5.05,3.13,12.85,2.5,18.39l-3.93,1.4c-.21,8-3.75,18.71-9.67,24.28-2.34,2.19-6.48,1.47-7.42,6.49-1.37,7.33,1.86,18.53,3.25,26.06.97,5.22.7,10.86,3.2,16.78,1.35,3.21,6.69,8.03,6.88,10.39.17,2.07-2.58,3.6-2.98,5.29-.32,1.36,1.63,2.29,1.39,3.81-1.86,11.45-13.63,5.46-14.24,6.13l.41,37.45c1.84,5.2,5.92,8.21,4.51,14.38l40.71.63,3.11,3.06c1.71-5.41,11.62.38,16.65.03v3.66c-5.04,1.2-11.48-1.78-14.8,3.71l18.5-1.21c.4,3.94-3.24,6.31-6.85,6.04-5.99-.44-15.37-3.28-21.95-3.13-17.2.4-36.93,4.09-54.57,4.49-16.31.37-32.94-2.48-49.26-3.02-17.95-.59-35.28.86-53.06.63-3.13-.04-6.09-1.52-9.25-1.33-3.83-3.22,9.37-2.85,8.64-4.92-3.82.47-9.19-.87-12.7.23-1.68.53-2.51,2.73-4.11,3.13-4.01.99-31.66,1.47-38.1,1.67-3.79.12-9.83-1.67-14.17-1.35l2.46-4.91-17.27-1.25,1.2-4.37,5.68.55c.75-3.36,8.17-2.61,10.79-1.1,1.46.84.53,4.46,6.72,1.64,1.24-.56,11.08-10.84,13.24-12.76,2.72-2.42,8.73-3.75,8.93-8.97.27-7.06-.69-22.81-2.49-29.51-1.25-4.63-4.28-3.77-.88-10.86l-9.23,8.62c-3.08-2.37-1.63-6.52-1.88-9.86-6.03,2.09-8.22,2.83-12.16-3.35,7.56-17.27,8.86-36.38,9.54-55.06-10.33-5.66-12.2-12.62-12.94-23.86-.17-2.54,1.46-5.54.81-8.17-.31-1.24-4.51-1.86-4.53-5.2,0-1.5,2.27-4.43,2.66-6.74.63-3.69-.87-8.09-.4-11.42,1.82-12.99,9.51-25.39,12.99-37.69,1.95-6.91,1-13.57,2.5-19.72s5.78-12.41,8.03-19.1c5.86-17.38,9.17-36.04,14.43-53.43,3.21-10.63,13.32-19.99,19.96-29.39,1.87-2.64,5.87-2.53,4.78-6.94-10.55-.31-22.23-2.15-32.34-5.31-5.8-1.81-21.99-11-25.29-11.77-1.72-.4-3.43,1.19-5.27.46-1.47-.58-19.11-14.84-21.8-17.14-1.39-1.19-2.17-4.22-4.17-5.2-1.82-.89-7.49,2.51-10.59,3-18.55,2.97-42.4-14.91-49.71-31.53-6.57-14.93-2.14-41.77,17.23-44.29l-2.56-12.86c-6.97,1.53-11.92,5.39-16-3.09l11.18-3.88-2.21-18.12.86-8.21c-3.39-.32-6.14,1.96-9.35,2.37s-16.4-1.36-16.56-5.44c3.77-.06,6.78-.45,10.37-2.01,1.65-.71,12.35-8.05,12.77-8.79,4.24-7.39-2.51-10.73-3.04-14.07-.2-1.22.74-11.07.95-13.42.63-7.02,1.82-13.83,6.1-19.73,1.41-1.59,1.61.84,1.84,1.85,2.42,10.49-3.53,22.41-1.82,33.32l9.8-22.54,6.22-2.12c-5.54,16.39-10.34,36.09-24.67,46.87,5.67-.91,12.15-6.67,15.34-11.17,2.77-3.91,3.3-7.1,6.07-11.12.54-.78,4.39-9.68,5.72-4.17,1.55,6.39-9.38,19.32-11.07,25.87l3.68.6v-2.79c-.26-1.44,2.39-1.15,3.08-.92,3.29,1.11-2.61,18.76-2.92,22.99-.24,3.31-.32,6.1.13,9.43.2,1.43,1.55,6.72,3.39,7.07.24-8.96.97-19.74,3.1-28.39.46-1.86.85-4.4,3.07-4.92,4.9,11.48.16,24.6.16,36.44,0,41.7,29.8,85.83,68.11,101.97,70.8,29.82,192.71,17.74,217.04-67.19.94-3.28,1.46-2.11,2.38-7.5,2.6-15.33,4.61-31.02,1.18-46.28l3.54-1.4c1.95,4.04,2.53,8.65,3.82,12.65.43,1.34,3.56.11,1.13,5.21l3.6.79,2.57,3.56c-1.25-2.91,1.6-6.8-2.45-6.18l2.43-1.78c-3.99-9.42-6.54-20.06-6.13-30.28,3.46,1.28,3.64,10.78,5.22,12.12.83.71,2.76-.05,3.42.23.2.08-1.25,2.5-1.16,4.14.14,2.52,1.78,5.34,1.16,8.2l2.44-.6c-3.25-3.87,1.11-6.21,1.38-9.89.06-.84-2.46-13.73-2.89-15.75-1.1-5.19-4.56-9.9-3.4-15.71l5.15,5.32,7.18,15.65v-25.29c0-10.54-9.02-19.35-12.33-28.99,1.91-1.92,12.49,12.25,15.43,13.56,1.52.67,2.33-.34,1.82-1.82l-28.38-41.96c8.17-.24,12.59,5.43,16.59,11.79s10.57,19.58,13.98,26.8c1.36,2.88.4,5.03.88,6.44,1.14,3.37,3.08-2.13,4.36-3.06,3.79-2.76,7.02-4.52,8.18,1.22.01,4.1-8.06,8.21-11.91,8.02-.35,3.32,4.76,5.76.62,8.6-3.27-1.86-.75-9.37-5.55-8.6,2.51,8.86,4.96,19.72,4.97,28.92,0,3.88-2.71,7.76-.16,12.31-.59,2.53-5.15,1.98-7.28,1.94.62,5.17-.74,10.28,2.73,14.54l8.44-.31,2.4,4.25c-8.02,6.45-8.81.97-17.25.03-2.3,9.7,9,12.13,13.39,19.3,4.14,6.76,3.97,14.41,5.18,21.9-4.13,1.28-.81,2.44-1.76,5.71-.57,1.95-2.89,3.34-3.73,5.04-1.2,2.41-2.9,8.93-5.2,9.55-1.23.33-3.18-1.12-4.18-1.04,2.1-7.57,6-14.88,6.2-22.89.34-13.42-9.37-28.5-23.87-20.07-3.93,2.29-5.82,14.03-8.25,18.27,9.15-4.15,24.22-14.83,26.98,1.61-1.87,3.49-4.73,4.62-8.37,3.37l-1.96,4.9c-8.5-10.01-3.75,4.79-4.56,7.75-.73,2.68-9.91,14.52-14,14.48l-6.1-4.95-10.5,16.02c12.09,1.19,22.96-.72,32.35-8.61,3.38-2.84,6.19-9.39,12.06-9.88ZM50.41,244.14c-18.01-.99-21.79,21.48-15.71,34.84s28.66,28.98,44.21,25.4c1.18-3.86-3.21-8.82-6.5-10.17-2.77-1.14-9.06,4.31-10.75-4.57l-1.78,2.44c-10.81-2.13-6.47-17.29-11.18-19.71-2.42-1.24-2.25,5.65-4.92,6.13l-5.34-12.19,2.25-1.34-2.52-.8,1.47-7.68c6.26-1.58,11.42,1.91,17.09,3.52l-6.33-15.86ZM236.74,356.47l-19.57,12.73c5.47,4.88,10.62,20.38,18.5,11.12,1.02-1.2,10.31-16.87,10.58-17.87.47-1.76-.19-3.26-.89-4.8l-7.95.96-.66-2.14ZM180.11,379.68l11.11-14.18c-15.19-12.16-11.02,4.12-13.55,14.18h2.44ZM260.77,366.91c-1.98-1.75-2.87-6.24-6.58-5.73-.43,3.87-4.14,4.64-6.51,7.7-1.62,2.09-11.64,18.46-11.95,20.14-.39,2.18.04,4.51-.08,6.71-7.41,1.33-10.32-7.37-17.11-8.01-6.44-.61-8.94,7.8-14.92,1.14l-2.51,1.34c5.71,9.71-7.09,20.22-7.28,28.33-.08,3.74,4.16,8.87,4.59,12.69s-1.8,7.5-1.01,11.39c.92,1.05,22.22-9.62,25.83-10.55,1.27-.33,6.24-1.76,4.99,1.28-8.62,9.96-36.57,10.28-39.21,23.76-1.11,5.66,1.03,9.83,5.89,12.65-.12-5.37,6.21-2.37,7.2-2.78.17-.07.16-1.9,1.9-2.36,2.88-.76,32.54-7.06,32.88-5.32.38,1.91-4.96,4.59-6.18,4.94-2.39.69-5.8.12-8.88.95-4.05,1.1-26.94,6.84-28.12,7.69-1.69,1.21-4.39,10.33-.66,9.22,9.47-4.65,21.03-9.62,31.48-10.47-11.19,8.67-33.29,10.77-41.28,22.88-2.52,3.82-5.72,13.39-4.45,17.7.22.73,7.06,1.96,6.26,6.29l-4.94-1.23c3.62,2.43,3.25,6.61,4.54,8.98,3.61,6.6,10.37,14.41,14.22,21.61,2.32,4.34,4.1,9.83,5.93,14.46l72.86-35.38c.25-5.05-2.55-11.14-2.59-15.9-.19-20.72-4.41-46.67-8.9-67.5-3.34-15.49-15.52-32.32-14.49-49.03l4.26,3.75,5.59,17.22c.9-8.65,2.15-19.32,5.26-27.44,2-5.21,8.32-7.41,4.7-12.74-1.52-2.24-8.18-6.08-10.76-8.37ZM171.48,369.82c-2.84-.7-2.02.55-2.81,1.56-6.5,8.32-12.14,13.94-9.5,25.58l4.91-3.7c-.2,1.93,1.11,3.89,1.12,5.67.08,7.68-3.61,27.99-5.12,36.58-.46,2.63-3.45,18.56-4,19.38-1.41,2.12-9.06,6.6-10.4,10.72-.32,1.79,3.33,3.87,4.14,6.46,1.13,3.58-1.2,6.7-1.58,9.33-.32,2.23,2.33,4.99-.82,8.17-8.62-.23-17.73,12.23-6.75,15.36l-7.41,17.29,22.85,28.97c7.76-6.66,26.13-16.91,20.74-29.34-.89-2.06-3.98-1.74-4.18-4.56-.05-.69.67-9.09.87-10.34,1.2-7.37,3.74-14.66,9.06-19.92-.96-.78-19.97,7.43-23.37,8.1-2.42.47-3.3,1.12-4.98-1.32.16-2.63,25.33-11.06,29.62-8.55l2.41-9.98c-3.51-2.59-1.65,2.19-3.16,3.23l-23.96,6.67c-2.88-1.56,3.33-5.39,4.07-5.81,4.94-2.83,12.22-3.53,15.44-5.02.35-.16,2.44-4.72,6.41-3.37-1.01-3.55-4.28-7.85-3.75-11.64s7.52-6.62,6.2-11.79c-.72-.96-18.78,10.78-22.19,8.03,7.27-7.39,17.95-9.02,27.22-12.52.95-4.02-2.17-5.95-2.55-8.57-.31-2.18,1.05-4.29.71-6.76-.36-2.62-3.01-5.36-3.06-7.93-.1-5.56,6.04-15.2,7.35-20.92-5.16-1.55-1.11-6.68-.65-10.48.17-1.39-1.42-2.48-1.37-3.12.17-2.2,4.39-5.43,1.94-9.29-4.44-.31-3.84,4.48-3.7,7.4-6.82-2.81-8.67,7.88-15.29,7.34-3.35-1.03-3.07-17.22-4.46-20.92ZM212.05,377.4c-3.95-2.32-12.33,9.77-5.08,7.57,2.59-.79,4.74-3.03,7.7-2.83l-2.63-4.74ZM280.06,395.72c2.26-3.79.35-7.29-3.06-9.57-6-.89-10.16,21.78-10.49,26.26-.1,1.39-.98,13.89,2.43,10.47,2.75-6.58,2.85-19.7,12.36-17.26l-9.85,24.17,3.7,33.81c7.07-3.38,10.07-13.76,17.9-16.02,1.56-.45,2.48.29,1.82,1.82-.41.93-8.43,9.9-9.83,11.15-2.21,1.98-5.18,2.15-6.19,4.28,7.56.63,13.88-10.04,19.13-12.32,1.81-.78,1.94.39,1.87,1.86-.34,6.97-18.78,11.83-22.24,19.09,6.23-1.22,11.16-5.89,17.87-7.41-.61,4.77,6.24,4.04,6.8,6.82,1.04,5.23-10.78,1.71-8.64-3.1-3.38-1-2.21,2.11-4.23,3.74-1.9,1.54-4.46,1.93-6.19,3.72-6.05,6.27,2.98,19.96.56,28.32,5.33-2.93,9.74-.51,14.79,1.25l-3.63,4.38-9.93-1.91c.29,4.06,9.47,3.65,8.64,6.76-.65,2.43-7.04,1.87-8.63-.6l-.02,16.04h30.86c-.67-5.72-3.3-8.51-1.25-14.81-6.16,1.33-15.09,1.87-19.73-3.1,2.94.27,6.06-2.13,8.59-2.51,1.64-.25,2.53,1.68,4.13,1.64,2.41-.06,6.22-3.13,9.49-2.21,1.86-4.86-4.15-8.3-4.77-10.76-.6-2.36,1.09-4.51.78-6.83-3.28-25.03-15.96-51.37-23.36-74.12-2.34-7.2-4.58-14.73-5.92-22.25l-3.77-.79ZM154.21,426.58l1.23-17.27c-1.8.89-3.67,5.6-4.27,7.43-1.45,4.43-4.87,11.78,3.04,9.84ZM143.28,456.34c.5-.76,4.73-.88,6.04-1.99.63-.53,3.16-13.74,3.02-15.61-.1-1.35-2.6-13.65-4.91-9.73-1.53,2.59-1.55,8.72-2.69,12.11-1.94,5.78-6.77,14.13-7.51,19.69s.76,9.16-1.07,14.77c-3.75,11.48-9.1,22.66-12.59,34.29,3.63,4.33,10.08,4.2,12.15-1.27l-4.93-2.55c1.66-3.28.76-7.11,1.8-10.45,1.32-4.22,8.26-10.2,9.11-14.43.74-3.69-1.34-6.39-1.15-9.59.16-2.69,2.14-4.07,2.53-6.21.46-2.49-.6-7.78.22-9.04ZM129.55,517.88l-7.55.71c-3.01,10.04-4.21,15.56,8.78,14.09l-1.38-6.01-4.78-.16,4.75-2.63.19-6ZM278.83,537.62c-2.84-2.88-33.9,16.75-39.47,18.52l.63,2.46c4.23-1.93,6.7.29,9.99.81,2.08.33,5.45-2.4,6.65,1.62-5.59.71-12.62,2.81-18.06,3.26-4.23.35-11.52-1.17-14.55-.8-3.47.42-9.72,5.73-16.48,5.92-10.14.29-10.66-12.45-16.29-18.23.65,4.58,2.1,20.84,6.14,22.84,2.43,1.2,28.63.16,33.94.62,2.08.18,12.94,1.44,12.94,3.07l-14.01,3.09-1.3-2.34-10.57,1.73c2.05,1.29,3.98,2.3,5.62,4.24,1.18,1.39,5.73,9.71,6.22,10.05,1.67,1.13,12.46,3.13,16.79,5.19,2.33,1.11,10.32,5.62,10.8,7.75l-8.58,7.93c1.37-14.02-5.82-9.63-13.49-14.27-3.29-1.99-2.63-5.78-6.25-5.46-1.21,8.8,7.45,20.53,8.38,28.03.45,3.59-4.12,11.03,2.71,11.44,1.33-17.64,20.22-10.9,17.81,5.03,6.32,2.91,12.58,2.45,19.15,1.09-.68-5.39-.08-21.42,5.06-24.05l12.27.05c4.96,3.34,5.16,11.95,12.34,10.49,2.04-6.77-2.8-10.4-4.85-16.73-3.44-10.66-4.03-29.37-7.73-37.92-1.31-3.04-7.34-4-4.69-11.98-17.99,7.7-12.01-12.95-11.1-23.44ZM299.82,561.05c1.42,1.22,11.27-8.88,12.22-10.68,7.46-14.12-16.44-12.68-24.33-10.06l-2.68,14.58c3.62-1.38,5.85-9.89,10.32-8.56,2.34.69,7.23,11.95,4.48,14.72ZM132.01,540.1h-7.39c-.29,6.36-.39,13.47,4.32,18.49l3.08-18.49ZM150.52,574.63h21.59c1.64,0,4.31-1.24,6.79-.01,1.86-1.35-17.84-7.33-19.4-8.31-1.27-.8-2.17.07-1.57-2.77,11.34-2.25,19.89,2.61,29.59,7.4,1.27-10.79-4.69-20.07-3.69-30.85-12.04.46-16.6,16.54-25.26,22.19-6.85.18-17.72-21.45-20.38-18.48l-6.19,68.46,6.83-4.29c4.11-1.15.23,8.45.58,9.86l-9.26-2.5c-2.77,13.71,5.34,7.88,12.41,3.8l5.01,4.78,1.08,13.69c12.09,8.76,25.59-8.09,34.6-8.69,3.41-.23.83,1.96,2.08,3.38.53.61,2.8.63,4.07,1.51,2.59,1.79,3.37,4.92,8.01,3.75,1.6-1.57-2.48-15.86-2.45-19.13.05-5.36,3.62-12.63,2.45-19.12l-24.02,12.34c-1.54-1.58-2.5-1.25-.58-3.02,5.44-5.02,15.76-6.82,18.44-15.48-3.37.12-6.21-1.96-9.43-2.41-1.18-.16-11.57-.78-12.18-.72-3.79.42-9.59,7.74-10.47-3.05l4.91,2.45,1.72-2.65,26.67-5.96c-12.33-1.99-25.08-1.21-37.53-2.6-2.21-.25-5.3-.66-4.41-3.58ZM243.04,637.56l-8.03,4.91c-9.23-3.48-5.01-9.18-5.61-15.2-.47-4.8-3.06-16.88-4.56-21.46-.66-2.02-6.38-13.57-7.66-14.66-2.13-1.81-5.99-1.03-8.63-1.69-5.43,16.45-4.02,33.92-5.22,50.95-4.36,6.12-9.66,4.75-15.19.89-1.98.14-4.18,15.22-4.34,17.94-.38,6.3-.69,12.59-1.09,18.36-.17,2.56,2.22,7.18,1.11,10.56l76.56.65,4.66-16.98-11.53-26.86-8.07,1.95-2.4-9.35ZM293.65,641.27c-4.16-.97-2.29,4.17-4.32,4.92l-1.83-2.46-1.87,6.16-1.22-3.69-6.79,6.15,16.05-2.46v-8.62ZM293.64,654.84c-.87-1.01-22.16,6.73-25.89,1.23l3.7,8.63c5.76-6.26,14.75-3.51,22.19-2.47v-7.39ZM177.57,661.11c-.54-.84-17.08-3.1-19.67-3.27-2.08-.13-3.26-1.27-4.9,1.33-.58,3.04,2.41,1.7,4.31,1.81,4.42.27,7.79.37,12.21,1.38.87.2,12.46,5.55,8.05-1.25ZM173.98,677.05l-20.99-1.23c1.85,3.25,6.03,2.97,9.24,4.94,4.99,3.06,10.04,12.92,14,8.05-.92-4.02-3.79-7.66-2.25-11.76ZM294.56,678.6c-4.71-4.35-27.39-5.5-26.81,5.85,4.02-3.83,13.73-5.45,18.85-3.66,1.34.47.8,2.34.91,2.41.76.49,1.9-2,3.05-2.1,1.51-.14,3.34,2.83,5.55,2.11.55-.55-.8-3.91-1.55-4.61ZM169.02,689.4c-.6-.64-10.81-3.78-12.63-4.14-7.85-1.56-21.89.25-21.9,10.29,5.06-5.61,13.84.16,17.64-.32.93-.12,2.03-1.56,2.94-1.65,4.05-.4,8.31-.18,12.25-1.6,1.34-.48,3.49-.68,1.7-2.59ZM297.03,689.7c-4.71-3.73-22.34-5.76-27.51-.38l-5.48,8.69c11.95,1.99,23.75.66,35.77,0,.73-.69-1.81-7.54-2.78-8.31Z"/>
  <path d="M299.6,184.95c.69,1.19.05,3.26.21,4.72-5.41-.41-9.95-3.39-15.48-3.57-2.18-.07-3.17,1.05-1.78,2.33,13.21,2.3,31.39,5.35,35.76,20.4,1.39,4.78-6.12-1.68-7.38-.63l4.95,9.86,6.14-3.7.62,3.7,3.68-2.47,1.87,3.71c-8.19-3.23-2.93,5.32-2.59,9.38,1.08,13.06-2.1,25.97-13.79,32.83-1.1.65-18.63,6.69-15.67,9.61l20.89-6.86c1.07-2.43,9.5-9.62,9.91-11.3.53-2.16,1.43-12.79,2.53-13.92,7.58,1,2.61,11.11-.17,15.27-2.06,3.08-6.5,2.81-4.78,9.41-6.77-1.75-4.56,3.7-7.95,6.24-.61.46-12.95,5.07-14.27,5.41-2.98.76-9.7-4.1-8.65-7.96-8.4.22-17.29,3.66-24.64-1.22-3.49,3.46,17.23,8.09,18.49,9.89l-.62,2.46c-11.83-.69-32.96-9.22-36.38-21.62-.55-1.98,4.63,2.65,3.69-1.21-13.48-8.1-17.67-18.82-15.9-34.43.87-7.65,1.82-10.1,9.74-10.64l-4.94-2.45c-1.09-1.13,5.99-11.75,7.37-13.02,1.65-1.52,3.9-1.4,4.63-2.13.85-.85.48-3.1,2.84-5.18,3.49-3.09,7.17-2.09,10.16-3.18,2.72-1,3.53-4.08,10.56-4.62,4.02-.31,19.28,1.96,20.99,4.91ZM296.65,251.93c6.84-3.53,10.09-5.18,12.44-12.88,4.08-13.36.32-28.55-11.13-37.03-8.52-6.31-23.9-11.82-32.08-2.47l-1.22-2.46c-1.86,2.7-7.83,4.5-9.35,6.69-1.63,2.34-1.99,8.71-4.86,11.8l-2.44-2.45c-.42,3.9-1.26,7.77.06,11.62,1.21,3.53,3.27,9.54,4.58,12.71,3.31,8.03,12.7,16.65,21.26,18.33,7.91,1.56,16.21-.5,22.74-3.87Z"/>
  <path d="M147.28,204.01c5.8,5.29,12.6,12.41,13.22,20.8.2,2.7-.81,5.19-.76,7.49.03,1.39,1.59,2.72,1.55,4.63-.06,3.97-4.97,11.11-7.25,14.84-6.78,11.05-23.25,31.41-37.59,30.37-6.36-.46-18.12-8-23.27-12.29-7.27-6.08-11.84-13.32-12.9-22.9-1.44-12.95.91-28.08,9.29-38.63,1.25-1.58,3.96-2.19,4.84-3.86.59-1.12-.5-3.06-.02-3.73,1.8-2.53,15.46-7.77,19.29-7.89,12.89-.38,24.31,2.7,33.6,11.18ZM116.61,205.25c-4.53.82-15.81,5.45-18.19,9.44-1.13,1.88-2.91,7.91-3.31,10.25-.73,4.31-.34,15.11.53,19.18.92,4.28,7.81,12.9,12.1,14.86,26.42,12.1,54.17-17.67,35.91-43.32-6.84-9.61-15.62-12.48-27.05-10.42ZM109.8,273.57l-2.8-3.97-13.23-9.58c2.72,6.79,8.87,11.88,16.03,13.55Z"/>
  <path d="M241.82,60.13c4.83,3.83-11.73,21.53-14.8,24.66,2.71,2.38,18.49-13.78,20.55-14.61,6.66-2.69-.06,8.4-1.99,10.35-9.1,9.17-21.98,10.82-32.6,15.53-12.72,5.63-22.63,14.52-37.07,17.33-3.38.66-6.64-.73-9.95,1.05-1.69.04,1.07-4.24-2.5-3.75-1.76.24-10.16,5.11-13.5,6.25-8.67,2.96-30.06,10.98-38.18,9.78-4.77-.7-10.82-6.01-16.78-4.92l2.4-5.38c-.84-2.79-11.19-4.13-3.01-11.88l1.83,2.45c.44-3.24,6.1-6.23,9.07-7.71,1.62-.8,3.19,0,4.53-.45,2.43-.83,3.17-4.83,8.62-1.68.74,2.94-1.9,3-3.86,4.09-5.1,2.85-11.32,6.02-17.13,7.01l.02,6.14,3.15-1.11,1.15,2.38,2.4-.11c1.96-1.42,2.52-3.98,4.35-5.52,4.89-4.13,16.17-13.94,21.65-14.26,7.8-.45,9.7-.49,17.5-4.59,3.34-1.76,24.56-16.68,26.29-15.03-3.06,7.39-12.48,13.28-19.36,17.02-11.71,6.38-22.08,5.87-30.89,9.83-3.57,1.61-4.01,4.74-6.22,6.46-2.55,1.98-9.35,5.63-10.78,7.37-.72.88-1.33,2.17.08,2.52,16.61,6.71,32.82-6.48,44.98-16.67s20.03-21.9,31.46-31.47l-10.49,17.88-20.98,21.58c6.16-1.61,14.75-6.41,20.11-10.1,8.66-5.96,18.09-15.02,24.34-22.55,2.32-2.79,3.16-7.05,6.76-9.26,5.46-.15-5,13.26-5.99,14.34-4.12,4.47-5.22,5.9-8.85,10.27-3.87,4.65-10.83,12.46-16.61,13.63,3.16,4.58,12.35-2.23,16.41-3.98,24.29-10.49,34.05-18.31,50-40.05.72-.98,2.11-4.29,3.9-2.87Z"/>
  <path d="M183.84,30.52l-.58,3.75-1.51,1c-4.62-.16-10.42-.18-14.89.61-32.08,5.65-61.26,34.32-89.85,40.18-7.15,1.47-14.58-1.22-21.49,1.35l20.41,3.55,6.16-2.34,3.03,3.07c-11.26,8.44-26.74,9.46-37.01,19.76,5.93,2.4,11.54-2.33,16.9-4.09.79-.26,4.31-2.6,4.04.38-.07.84-10.3,10.11-12.01,11.76-1.79,1.72-5.13,2.3-7.07,4.93-4.18,5.66-2.75,13.89-7.43,18.48l.61-7.41-2.45,1.25c-1.13-8.08,9.69-11.46,8.62-19.74-10.68.36-15.17,12.65-14.82,22.2l-4.75-.16c-.36-2.08-1.34-4.18-1.13-6.34,1.31-13.16,19.94-32.88,33.05-35.46-6.39-5.28-15.71-3.64-22.85-9.84-2.21-1.92-11.99-14.64-6.07-16.04,4.1-.97,4.57,4.51,5.82,5.8,5.41,5.59,27.73,4.88,35.57,3.28,14.69-3.01,20.43-10.01,31.94-15.69,2.83-1.4,10.79-2.46,13.92-4.49,1.53-.99.93-3.44,2.66-5.02,2.27-2.07,18.65-9.94,22.24-11.09,5.47-1.76,35.83-6.88,38.93-3.64Z"/>
  <path d="M275.66,27.52c3.81,4.38,6.94,9.07,10.63,13.49,3.44,4.13,12.14,9.18,11.69,15.4-17.26-6.66-21.74-26.13-35.8-37-.33,2.7,2.7,7.08,4.11,9.46,2.24,3.79,4.78,7.5,7.59,10.89-.91,1.16-1.54,1.74-3.09,1.95-2.99.39-17.85-5.85-22.73-6.94-4.39-.99-18.99-4.4-20.5-.51-20.01-1.91-40.79-9.18-60.59-11.05-8.41-.79-18.25,2.61-25.76,2.44-5.39-.12-7.38-4.52-1.1-6.16,25.85-6.76,53.19,4.26,77.75,7.24,14.61,1.77,29.67-1.29,43.7,6.26.12-6.08-9.38-8.44-5.99-14.59l3.51-.84c-7.43-8.1-17.27-12.74-28.35-12.97.38-4.29,6.65-4.81,10.33-4.52,13.87,1.1,26.44,18.09,34.6,27.46Z"/>
  <path d="M322.16,67.38c.08.13,1.7-.03,2.26,1.07,4.76,9.36,14.1,15.02,21.73,22.45,1.99,1.94,2.2,4.98,3.89,6.31,7.65,6.05,22.68,7.8,30.61,13.5l1.37-2.42,6.63-.05c2.26,2.29-7.18,13.82-7.41,6.17h-1.2c.74,4.42-7.73,2.44-10.6,1.32-3.56-1.39-6.04-5.53-9.48-7.8-5.38-3.55-17.34-8.65-21.54-13.61-1.78-2.09-1.59-6.53-3.99-8.98s-6.8-2-9.3-5.5c-2.12-2.97-1.34-6.43-1.9-7.4-.08-.14-1.82,1.01-3.31.35-5.95-2.66-1.23-19-5.44-25.54-1.17-1.82-7.36-3.39-1.46-5.89l-.88-2.2c10.68-.27,13.22,15.65,12.05,23.76-.24,1.67-2.37,3.94-2.03,4.46Z"/>
  <path d="M78.6,131.36c-.17.39-1.88.3-2.77,2.69-1.65,4.43-4.17,24.4-.55,27.24,4.13-1.13,4.93-9.39,9.84-6.79-1.8,8.47-11.26,5.35-11.15,14.18l-3.64.03c-.08-7.26-7.33-10.36-1.2-17.89-5.69-1.75-.01-10.45,1.26-14.79l-2.44-2.34c4.16-6.3,9.85-11.28,11.03-19.27l3.66,4.28c-2.69,3.59-2.7,9.67-4.04,12.66Z"/>
  <path d="M93.75,689.38l1.24,8.63-52.29,2.46-1.98-2.45-2.47,2.46c.73-5.08,9.13-7.63,13.05-5.04l.52-2.35,1.83,2.45c6.55-3.72,17.79-1.85,25.58-2.79,4.57-.56,10.01-2.18,14.52-3.37Z"/>
  <path d="M221.76,281.28l1.43,5.05c-4.84,6.96-9.33.18-14.19-.4s-10.64,2.32-15.31,1.99c-2.06-.15-3.92-2.06-5.46-2.09-.84-.02-1.07,2.27-1.99,3.1-4.92,4.41-9.79-3.09-6.58-5.6,13.29-3.92,28.02-4.49,42.1-2.05Z"/>
  <path d="M205.46,42.25c4.13-.42,11.59-.83,14.79,1.83,2.49,3.59-12.95,1.8-14.4,1.94-11.65,1.19-25.93,6.5-36.79,11.06-4.47,1.87-9.86,5.93-13.91,7.09-6.79,1.96.21-5.19,2.85-7.06,9.21-6.51,35.99-13.71,47.46-14.87Z"/>
  <path d="M418.26,681.98l-1.22,7.4c2.15-1.5,11.52-4.39,12.32-.6.52,2.44-4.49,3.74-3.69,6.76l5.64-1.12.53,2.33h2.43s.76-2.54.76-2.54c3.87,3.65,21.79-.43,22.39,4.39.02.16-.92,2.9-1.06,2.99-2.58,1.63-27.55-2.32-32.37-1.09-.88-.23-1.45-6.37-3.96.05l-5.35-1.42.99-8.34c-7.94-1.86-3.99-10.18,2.57-8.81Z"/>
  <path d="M112.01,283.85c.26.08-.1,1.96,2.03,2.18,2.81.3,16.75-1.56,18.93-2.89.73-.45.7-2.73,2.31-3.24,1.2-.38,3.03.89,4.22.42,3.5-1.39,3.15-8.73,4.82-9.95l3.68.72,9.95-18.49,3.11,1.19c1.93,2.53-3.81,10.91-5.66,12.92-2.28,2.48-5.15,4.75-8.1,7.94-7.84,8.46-11.53,15.05-24.51,15.51-2.91.1-14.92-1.59-18-2.54-5.28-1.63-15.25-4.98-9.17-11.55,4.06,2.32,8.91,6.14,13.07,7.96,1.25.55,2.49-.44,3.33-.19Z"/>
  <path d="M295.67,33.44c9.37,6.12,8.85,22.6,17.65,28.62l-3.06,5.47c-1.71.4-5.03-3.69-5.99-5.08-2.59-3.74-13.09-24.77-14.3-28.9-1.09-3.72,4.34-1,5.69-.11Z"/>
  <path d="M323.25,272.35c3.63,3.95-14.68,14.22-17.61,15.07-5.37,1.58-10.27.87-15.7.95l.87-3.7,9.64-3.7.64,2.41,2.41.05c.46-5.18,6.42-3.91,9.89-5.55,1.8-.85,9.03-6.46,9.87-5.54Z"/>
  <path d="M386.13,696.74c-.78-5.76,12.81-.65,9.15,2.57-2.7,3.12-17.73,2.52-19.69,0-.23-1.87.95-3.55.79-5.56-.77-9.8-9.29-2.07-7.47-13.01,8.99-1.98,7.17,10.01,10.47,13.66.87.97,5.15-.11,6.74,2.33Z"/>
  <path d="M299.44,71.58c1.47,1.57,1.99,3.24-.23,4.56-10.23-6.8-26.06-5.37-33.93-16,7.88.33,28.94,5.85,34.17,11.44Z"/>
  <path d="M333.13,151.42c4.7-.89,3.66-4.34,7.19.84,2.99,4.39,3.33,7.77,1.43,12.74-6.41-.22-5.25-4.9-6.85-7.27-1.41-2.1-11.85-13.39-6.07-14.93,4.47-1.19,7.17,5.26,4.3,8.62Z"/>
  <path d="M324.19,152.97c1.02,1.22.46,4.19,1.87,5.54,1,.96,6.75,1.83,7.13,3.6,2.03,9.19-12.24,7.05-15.55-4.48-1.93-6.74,3.85-7.89,6.55-4.66Z"/>
  <path d="M283.36,50.65c.68.74,1.25,2.28,1.64,3.29-2.59,1.9-25.76-4.87-25.83-6.76-.03-.85,1.03-3.1,2.98-3.15,4.2-.11,18.34,3.5,21.2,6.61Z"/>
  <path d="M121.93,294.91c.25.14.2,2.17.9,2.18l4.25-1.3c.17.13-1.22,3.15-2.16,3.68-4.77,2.68-19.79.42-24.61-2.2-4.58-2.5-5.55-5.97.62-4.33,3.94,1.05,7.68,3.62,12.26,3.71,1.29.03,7.21-2.59,8.75-1.74Z"/>
  <path d="M409.31,698.93c-1.01,1.18-3.69,1.44-5.25,1.63-4.12-1.3-1.25-4.54-6.76-3.15,1.2-10.3,18.71-6.27,12.01,1.52Z"/>
  <path d="M397.04,685.38c-1.03.6-2.3.23-3.45.29-2.06-2.05,4.85-15.95,9.23-14.79,4.35,1.14-5.03,14.07-5.78,14.5Z"/>
  <path d="M391.12,685.66l-5.56,2.45c-4.67-5.73-3.68-8.99,1.25-13.53l4.31,11.08Z"/>
  <path d="M207.27,263.7c-5.53.66-7.87-5.41-7.39-9.86l6.79,2.45.6,7.41Z"/>
  <path d="M196.16,253.84c1.99,4.35.89,13.29-4.99,9.31-4.3-2.91,2.95-10.86,4.99-9.31Z"/>
  <path d="M17.34,699.18l-1.21-6.56c1.76-7.05,16.23,6.93,1.21,6.56Z"/>
  <polygon points="477.38 698.12 477.48 702.95 467.62 701.7 467.62 698.03 477.38 698.12"/>
  <path d="M6.16,693.09c.67,4.22-1.42,8.03-6.16,7.39l.54-6.24,5.62-1.15Z"/>
  <path class="cls-1" d="M260.77,366.91c2.57,2.28,9.24,6.13,10.76,8.37,3.61,5.34-2.7,7.53-4.7,12.74-3.12,8.12-4.36,18.78-5.26,27.44l-5.59-17.22-4.26-3.75c-1.03,16.71,11.15,33.54,14.49,49.03,4.49,20.83,8.71,46.78,8.9,67.5.04,4.75,2.84,10.85,2.59,15.9l-72.86,35.38c-1.83-4.63-3.61-10.12-5.93-14.46-3.85-7.2-10.61-15-14.22-21.61-1.29-2.37-.92-6.55-4.54-8.98l4.94,1.23c.8-4.33-6.05-5.56-6.26-6.29-1.27-4.31,1.93-13.88,4.45-17.7,7.98-12.11,30.08-14.21,41.28-22.88-10.45.85-22.01,5.82-31.48,10.47-3.73,1.11-1.03-8.01.66-9.22,1.19-.85,24.08-6.59,28.12-7.69,3.08-.83,6.49-.26,8.88-.95,1.21-.35,6.56-3.02,6.18-4.94-.35-1.74-30,4.56-32.88,5.32-1.74.46-1.73,2.29-1.9,2.36-.99.41-7.32-2.59-7.2,2.78-4.86-2.81-6.99-6.98-5.89-12.65,2.64-13.48,30.59-13.8,39.21-23.76,1.25-3.04-3.72-1.61-4.99-1.28-3.61.93-24.92,11.6-25.83,10.55-.79-3.89,1.42-7.7,1.01-11.39s-4.67-8.95-4.59-12.69c.18-8.11,12.99-18.62,7.28-28.33l2.51-1.34c5.98,6.66,8.48-1.75,14.92-1.14,6.79.64,9.71,9.34,17.11,8.01.12-2.2-.31-4.52.08-6.71.3-1.68,10.33-18.05,11.95-20.14,2.36-3.05,6.08-3.82,6.51-7.7,3.71-.51,4.6,3.97,6.58,5.73ZM207.27,433.97c.27-3.62-.07-9.75-4.92-9.86l.58,8.66,4.34,1.2ZM270.02,502.89l-.43-4.75c-3.19,4.22-8.07,2.34-11.75,3.05-16.32,3.16-30.55,6.64-46.56,11.44-5,1.5-10.85-1.07-5.79,7.76,10.33-4.8,21.43-6.7,32.34-9.59,7.22-1.91,8.24-2.71,15.17-3.36,4.02-.38,12.38-3.9,17.02-4.55ZM245.52,517.88c-1.34-1.26-16.49,3.68-19.26,4.74-1.74.67-1.54,2.09-2.65,2.56-1.47.63-9.78.19-8.92,4.39.96,4.7,7.36-.59,8.62-.99,5.23-1.66,15.85-3.44,20.13-6.02,2.37-1.43,2.38-1.94,2.09-4.69Z"/>
  <path class="cls-1" d="M171.48,369.82c1.39,3.7,1.11,19.89,4.46,20.92,6.62.55,8.47-10.15,15.29-7.34-.14-2.93-.74-7.72,3.7-7.4,2.45,3.85-1.77,7.08-1.94,9.29-.05.65,1.53,1.73,1.37,3.12-.46,3.8-4.51,8.93.65,10.48-1.31,5.72-7.45,15.36-7.35,20.92.05,2.57,2.7,5.31,3.06,7.93.34,2.46-1.03,4.57-.71,6.76.38,2.62,3.49,4.55,2.55,8.57-9.26,3.5-19.95,5.12-27.22,12.52,3.41,2.75,21.47-8.98,22.19-8.03,1.32,5.17-5.68,8.13-6.2,11.79s2.74,8.09,3.75,11.64c-3.96-1.34-6.05,3.21-6.41,3.37-3.22,1.49-10.5,2.2-15.44,5.02-.74.42-6.95,4.26-4.07,5.81l23.96-6.67c1.52-1.05-.35-5.82,3.16-3.23l-2.41,9.98c-4.29-2.51-29.46,5.92-29.62,8.55,1.69,2.45,2.57,1.8,4.98,1.32,3.4-.67,22.41-8.88,23.37-8.1-5.32,5.25-7.86,12.55-9.06,19.92-.2,1.25-.92,9.64-.87,10.34.19,2.82,3.29,2.5,4.18,4.56,5.39,12.42-12.98,22.68-20.74,29.34l-22.85-28.97,7.41-17.29c-10.98-3.13-1.87-15.59,6.75-15.36,3.15-3.18.5-5.93.82-8.17.38-2.62,2.71-5.74,1.58-9.33-.82-2.59-4.46-4.67-4.14-6.46,1.34-4.12,8.99-8.6,10.4-10.72.55-.82,3.54-16.75,4-19.38,1.51-8.6,5.21-28.9,5.12-36.58-.02-1.78-1.32-3.74-1.12-5.67l-4.91,3.7c-2.63-11.64,3-17.26,9.5-25.58.79-1.01-.03-2.26,2.81-1.56Z"/>
  <path class="cls-1" d="M278.83,537.62c-.91,10.49-6.89,31.13,11.1,23.44-2.65,7.98,3.38,8.94,4.69,11.98,3.7,8.55,4.29,27.26,7.73,37.92,2.05,6.34,6.89,9.97,4.85,16.73-7.18,1.46-7.38-7.15-12.34-10.49l-12.27-.05c-5.14,2.62-5.74,18.66-5.06,24.05-6.57,1.36-12.82,1.83-19.15-1.09,2.41-15.93-16.48-22.67-17.81-5.03-6.82-.41-2.26-7.85-2.71-11.44-.94-7.5-9.59-19.23-8.38-28.03,3.63-.32,2.96,3.47,6.25,5.46,7.67,4.65,14.87.25,13.49,14.27l8.58-7.93c-.48-2.13-8.47-6.64-10.8-7.75-4.33-2.06-15.13-4.06-16.79-5.19-.49-.33-5.04-8.66-6.22-10.05-1.64-1.94-3.57-2.95-5.62-4.24l10.57-1.73,1.3,2.34,14.01-3.09c0-1.64-10.86-2.89-12.94-3.07-5.31-.46-31.5.58-33.94-.62-4.04-1.99-5.49-18.26-6.14-22.84,5.63,5.79,6.14,18.53,16.29,18.23,6.77-.19,13.02-5.5,16.48-5.92,3.02-.37,10.32,1.16,14.55.8,5.44-.46,12.48-2.56,18.06-3.26-1.19-4.02-4.57-1.29-6.65-1.62-3.29-.52-5.75-2.74-9.99-.81l-.63-2.46c5.57-1.77,36.62-21.4,39.47-18.52ZM285.96,582.3c-7.25-6.2-17.52-1.68-21,6.22-3.72,8.44,8.26,14.65,15.51,10.68,6.62-3.63,7.34-10.32,5.49-16.9Z"/>
  <path class="cls-1" d="M243.04,637.56l2.4,9.35,8.07-1.95,11.53,26.86-4.66,16.98-76.56-.65c1.11-3.38-1.29-8-1.11-10.56.39-5.77.71-12.06,1.09-18.36.16-2.72,2.36-17.8,4.34-17.94,5.52,3.87,10.83,5.23,15.19-.89,1.2-17.03-.21-34.5,5.22-50.95,2.64.66,6.5-.12,8.63,1.69,1.28,1.09,7,12.64,7.66,14.66,1.5,4.58,4.09,16.66,4.56,21.46.59,6.02-3.63,11.72,5.61,15.2l8.03-4.91Z"/>
  <path class="cls-1" d="M150.52,574.63c-.89,2.92,2.2,3.33,4.41,3.58,12.45,1.39,25.2.61,37.53,2.6l-26.67,5.96-1.72,2.65-4.91-2.45c.88,10.79,6.68,3.47,10.47,3.05.61-.07,10.99.55,12.18.72,3.22.45,6.06,2.53,9.43,2.41-2.68,8.66-13,10.46-18.44,15.48-1.92,1.77-.96,1.44.58,3.02l24.02-12.34c1.17,6.49-2.4,13.75-2.45,19.12-.03,3.27,4.05,17.57,2.45,19.13-4.64,1.17-5.43-1.96-8.01-3.75-1.27-.88-3.54-.9-4.07-1.51-1.25-1.43,1.33-3.61-2.08-3.38-9.01.59-22.5,17.45-34.6,8.69l-1.08-13.69-5.01-4.78c-7.07,4.08-15.18,9.9-12.41-3.8l9.26,2.5c-.35-1.42,3.52-11.01-.58-9.86l-6.83,4.29,6.19-68.46c2.67-2.97,13.53,18.66,20.38,18.48,8.66-5.65,13.22-21.73,25.26-22.19-1,10.78,4.97,20.06,3.69,30.85-9.7-4.79-18.26-9.65-29.59-7.4-.6,2.84.31,1.98,1.57,2.77,1.56.98,21.26,6.96,19.4,8.31-2.47-1.23-5.15.01-6.79.01h-21.59ZM141.53,591.06c-2.07-1.81-4.31-1.97-4.44,1.29l7.26,8.18c.45-3.02-.5-7.45-2.82-9.47Z"/>
  <path class="cls-1" d="M280.06,395.72l3.77.79c1.34,7.52,3.58,15.05,5.92,22.25,7.4,22.75,20.09,49.09,23.36,74.12.3,2.31-1.38,4.47-.78,6.83.63,2.46,6.63,5.91,4.77,10.76-3.27-.92-7.09,2.15-9.49,2.21-1.6.04-2.49-1.89-4.13-1.64-2.52.39-5.64,2.79-8.59,2.51,4.64,4.96,13.57,4.43,19.73,3.1-2.05,6.29.58,9.08,1.25,14.8h-30.86s.02-16.03.02-16.03c1.59,2.47,7.99,3.03,8.63.6.83-3.12-8.36-2.7-8.64-6.76l9.93,1.91,3.63-4.38c-5.05-1.77-9.46-4.19-14.79-1.25,2.42-8.36-6.61-22.05-.56-28.32,1.73-1.79,4.29-2.18,6.19-3.72,2.01-1.63.85-4.74,4.23-3.74-2.14,4.81,9.68,8.33,8.64,3.1-.55-2.78-7.41-2.05-6.8-6.82-6.71,1.52-11.64,6.19-17.87,7.41,3.46-7.26,21.9-12.12,22.24-19.09.07-1.47-.06-2.64-1.87-1.86-5.25,2.28-11.57,12.95-19.13,12.32,1.02-2.12,3.99-2.3,6.19-4.28,1.4-1.25,9.42-10.22,9.83-11.15.67-1.52-.25-2.27-1.82-1.82-7.83,2.27-10.83,12.64-17.9,16.02l-3.7-33.81,9.85-24.17c-9.51-2.44-9.6,10.68-12.36,17.26-3.41,3.42-2.53-9.07-2.43-10.47.33-4.48,4.49-27.15,10.49-26.26,3.4,2.28,5.31,5.79,3.06,9.57ZM290.91,481.12c-2.14-1.48-7.1-1.34-8.34,1.59l9.84,5.55c.51-.62-.49-6.44-1.5-7.14Z"/>
  <path class="cls-1" d="M50.41,244.14l6.33,15.86c-5.67-1.6-10.83-5.09-17.09-3.52l-1.47,7.68,2.52.8-2.25,1.34,5.34,12.19c2.67-.48,2.5-7.38,4.92-6.13,4.71,2.42.36,17.58,11.18,19.71l1.78-2.44c1.69,8.89,7.98,3.43,10.75,4.57,3.29,1.36,7.68,6.31,6.5,10.17-15.55,3.58-37.88-11.5-44.21-25.4s-2.3-35.83,15.71-34.84Z"/>
  <path class="cls-1" d="M143.28,456.34c-.82,1.26.24,6.56-.22,9.04-.39,2.14-2.37,3.51-2.53,6.21-.18,3.2,1.89,5.9,1.15,9.59-.85,4.22-7.79,10.21-9.11,14.43-1.04,3.34-.15,7.17-1.8,10.45l4.93,2.55c-2.07,5.47-8.52,5.6-12.15,1.27,3.49-11.62,8.85-22.81,12.59-34.29,1.83-5.61.32-9.07,1.07-14.77s5.57-13.91,7.51-19.69c1.14-3.4,1.16-9.52,2.69-12.11,2.32-3.92,4.81,8.38,4.91,9.73.14,1.87-2.39,15.07-3.02,15.61-1.31,1.11-5.54,1.23-6.04,1.99Z"/>
  <path class="cls-1" d="M236.74,356.47l.66,2.14,7.95-.96c.7,1.54,1.37,3.03.89,4.8-.27,1-9.57,16.67-10.58,17.87-7.87,9.26-13.03-6.23-18.5-11.12l19.57-12.73Z"/>
  <path class="cls-1" d="M297.03,689.7c.97.77,3.52,7.62,2.78,8.31-12.02.66-23.82,1.99-35.77,0l5.48-8.69c5.16-5.38,22.8-3.35,27.51.38Z"/>
  <path class="cls-1" d="M299.82,561.05c2.76-2.77-2.14-14.03-4.48-14.72-4.47-1.32-6.7,7.18-10.32,8.56l2.68-14.58c7.9-2.62,31.8-4.05,24.33,10.06-.95,1.79-10.8,11.9-12.22,10.68Z"/>
  <path class="cls-1" d="M169.02,689.4c1.79,1.91-.36,2.11-1.7,2.59-3.94,1.41-8.2,1.2-12.25,1.6-.91.09-2.01,1.53-2.94,1.65-3.8.48-12.58-5.29-17.64.32.01-10.04,14.05-11.85,21.9-10.29,1.82.36,12.03,3.5,12.63,4.14Z"/>
  <path class="cls-1" d="M173.98,677.05c-1.54,4.11,1.33,7.74,2.25,11.76-3.96,4.87-9.01-4.98-14-8.05-3.21-1.97-7.39-1.69-9.24-4.94l20.99,1.23Z"/>
  <path class="cls-1" d="M294.56,678.6c.76.7,2.1,4.05,1.55,4.61-2.21.72-4.04-2.25-5.55-2.11-1.14.1-2.29,2.59-3.05,2.1-.11-.07.43-1.94-.91-2.41-5.12-1.79-14.83-.17-18.85,3.66-.58-11.35,22.1-10.2,26.81-5.85Z"/>
  <path class="cls-1" d="M180.11,379.68h-2.44c2.53-10.06-1.65-26.34,13.55-14.18l-11.11,14.18Z"/>
  <path class="cls-1" d="M129.55,517.88l-.19,6-4.75,2.63,4.78.16,1.38,6.01c-12.99,1.47-11.78-4.05-8.78-14.09l7.55-.71Z"/>
  <path class="cls-1" d="M293.64,654.84v7.39c-7.44-1.04-16.43-3.79-22.19,2.47l-3.7-8.63c3.73,5.51,25.02-2.24,25.89-1.23Z"/>
  <path class="cls-1" d="M132.01,540.1l-3.08,18.49c-4.71-5.02-4.61-12.13-4.32-18.5h7.39Z"/>
  <path class="cls-1" d="M177.57,661.11c4.41,6.8-7.18,1.45-8.05,1.25-4.41-1.01-7.78-1.11-12.21-1.38-1.91-.12-4.89,1.23-4.31-1.81,1.64-2.6,2.82-1.46,4.9-1.33,2.59.17,19.13,2.43,19.67,3.27Z"/>
  <path class="cls-1" d="M293.65,641.27v8.62s-16.04,2.46-16.04,2.46l6.79-6.15,1.22,3.69,1.87-6.16,1.83,2.46c2.04-.75.17-5.89,4.32-4.92Z"/>
  <path class="cls-1" d="M154.21,426.58c-7.92,1.94-4.5-5.42-3.04-9.84.6-1.83,2.47-6.54,4.27-7.43l-1.23,17.27Z"/>
  <path class="cls-1" d="M212.05,377.4l2.63,4.74c-2.97-.2-5.11,2.04-7.7,2.83-7.25,2.2,1.12-9.89,5.08-7.57Z"/>
  <path class="cls-1" d="M296.65,251.93c-6.53,3.37-14.83,5.43-22.74,3.87-8.56-1.69-17.95-10.3-21.26-18.33-1.31-3.17-3.37-9.18-4.58-12.71-1.32-3.85-.47-7.73-.06-11.62l2.44,2.45c2.87-3.09,3.23-9.46,4.86-11.8,1.52-2.19,7.49-3.99,9.35-6.69l1.22,2.46c8.19-9.35,23.57-3.84,32.08,2.47,11.44,8.49,15.2,23.67,11.13,37.03-2.35,7.7-5.6,9.35-12.44,12.88Z"/>
  <path class="cls-1" d="M116.61,205.25c11.43-2.06,20.21.81,27.05,10.42,18.25,25.65-9.49,55.42-35.91,43.32-4.29-1.96-11.19-10.58-12.1-14.86s-1.27-14.87-.53-19.18c.4-2.35,2.19-8.37,3.31-10.25,2.38-3.99,13.66-8.63,18.19-9.44Z"/>
  <path class="cls-1" d="M109.8,273.57c-7.16-1.68-13.32-6.76-16.03-13.55l13.23,9.58,2.8,3.97Z"/>
  <path d="M270.02,502.89c-4.64.65-13,4.17-17.02,4.55-6.93.65-7.95,1.45-15.17,3.36-10.91,2.89-22.01,4.79-32.34,9.59-5.06-8.83.8-6.26,5.79-7.76,16.01-4.8,30.24-8.27,46.56-11.44,3.68-.71,8.57,1.17,11.75-3.05l.43,4.75Z"/>
  <path d="M245.52,517.88c.29,2.75.28,3.26-2.09,4.69-4.27,2.58-14.89,4.36-20.13,6.02-1.26.4-7.66,5.69-8.62.99-.86-4.2,7.45-3.76,8.92-4.39,1.11-.47.9-1.89,2.65-2.56,2.78-1.06,17.93-6.01,19.26-4.74Z"/>
  <path d="M207.27,433.97l-4.34-1.2-.58-8.66c4.85.11,5.2,6.24,4.92,9.86Z"/>
  <path d="M285.96,582.3c1.85,6.58,1.13,13.27-5.49,16.9-7.25,3.98-19.23-2.24-15.51-10.68,3.48-7.9,13.75-12.42,21-6.22ZM270.21,595.6c4.16-.43,14.54-2.45,11.75-8.6-4.14-9.1-13.25,2.09-11.75,8.6Z"/>
  <path d="M141.53,591.06c2.31,2.02,3.27,6.46,2.82,9.47l-7.26-8.18c.14-3.26,2.37-3.11,4.44-1.29Z"/>
  <path d="M290.91,481.12c1.01.7,2.01,6.51,1.5,7.14l-9.84-5.55c1.24-2.93,6.2-3.07,8.34-1.59Z"/>
  <path class="cls-1" d="M270.21,595.6c-1.5-6.5,7.62-17.7,11.75-8.6,2.79,6.15-7.59,8.17-11.75,8.6Z"/>
</svg>